<svg xmlns="http://www.w3.org/2000/svg" width="219.592" height="40" viewBox="-1 -1 219.592 40" id="logo-marca-claro" y="1014"><path d="M13.035 33.838L8.52 21.076V31.5h1.615V38H.027v-6.5h1.626V14.84H0V8.375l9.644-.012 3.544 10.046 3.587-10.046 9.457.012v6.465h-1.618V31.5h1.618V38h-10.11v-6.5h1.625V21.076l-4.712 12.762zM42.686 8.365L46.438 31.5h1.186v6.487H38.31V31.5h1.195l-.002-2.43h-4.319l-.002 2.43h1.193v6.487h-9.309V31.5h1.185L32.01 8.365h10.676zM38.812 25.15l-1.487-9.166-1.453 9.166h2.94zm39.815-10.292v5.779h6.729v-9.12l-3.131-3.152h-9.847l-3.133 3.145v23.343l3.133 3.135h9.856l3.131-3.135.005-9.109h-6.745l-.003 5.775h-2.218V14.858h2.223zm-19.09 23.128v-11.76l-2.172-.002-.003 5.276h1.18v6.487H48.461V31.5h1.621V14.84h-1.627V8.365H63.68l3.121 3.123v9.347l-2.524 2.498 2.512 2.491v5.683h1.622v6.479h-8.874zM57.339 14.84v6.815l2.206.003v-6.812l-2.206-.006zm44.485-6.475l3.75 23.135h1.188v6.487h-9.314V31.5h1.194v-2.43h-4.317l-.005 2.43h1.191v6.487h-9.31V31.5h1.189l3.759-23.135h10.675zM97.95 25.15l-1.486-9.166-1.452 9.166h2.938zm100.385-5.151c-2.059-2.062-4.547-3.069-7.376-3.069-2.825 0-5.268 1.007-7.282 3.069-2.059 2.064-3.063 4.557-3.063 7.433 0 2.878 1.005 5.373 3.063 7.387 2.015 2.062 4.457 3.117 7.282 3.117 2.829 0 5.317-1.055 7.376-3.117 2.014-2.014 3.02-4.509 3.02-7.387 0-2.876-1.006-5.37-3.02-7.433zm-3.496 11.319c-1.051 1.103-2.346 1.629-3.88 1.629-1.483 0-2.778-.526-3.831-1.629-1.055-1.104-1.629-2.4-1.629-3.887 0-1.581.574-2.876 1.629-3.932 1.053-1.104 2.348-1.631 3.831-1.584 1.534-.047 2.829.48 3.929 1.584 1.006 1.056 1.533 2.351 1.578 3.932-.045 1.487-.572 2.784-1.627 3.887zm-69.451-19.52c2.873-.048 5.508.862 7.806 2.685 2.252 1.774 3.737 4.077 4.503 6.857h-5.221c-.668-1.342-1.629-2.493-2.825-3.309-1.341-.863-2.729-1.293-4.263-1.293-2.203 0-4.074.815-5.605 2.348-1.578 1.584-2.346 3.454-2.297 5.661-.049 2.204.719 4.074 2.297 5.657 1.531 1.535 3.402 2.35 5.605 2.35 1.533 0 2.922-.431 4.263-1.246a8.96 8.96 0 0 0 2.825-3.31h5.221c-.766 2.783-2.251 5.036-4.503 6.859-2.298 1.773-4.933 2.635-7.806 2.635-3.592 0-6.562-1.245-9.051-3.739-2.539-2.542-3.784-5.659-3.784-9.206 0-3.598 1.245-6.619 3.784-9.162 2.489-2.589 5.459-3.835 9.051-3.787zM157 16.882c-3.352-.049-5.699.864-7.04 2.638-.86 1.103-1.292 2.543-1.438 4.363h4.984c.094-.862.383-1.438.719-1.82.526-.674 1.387-1.009 2.631-.961 1.057-.048 1.872.146 2.445.48.574.287.814.862.86 1.678 0 .67-.382 1.2-1.147 1.534l-3.832.622c-1.771.241-3.207.674-4.311 1.297-1.869 1.104-2.779 2.878-2.73 5.42-.049 1.773.527 3.213 1.676 4.27 1.004.861 2.396 1.34 4.072 1.389 2.729-.049 4.882-.719 6.417-2.061v2.061h4.98V23.115c0-2.396-.862-4.075-2.491-4.939-1.723-.911-3.639-1.343-5.795-1.294zm2.108 11.268l.957-.527v2.015c0 1.728-.478 2.927-1.388 3.598-.961.671-1.963 1.006-3.114 1.006-.716 0-1.292-.191-1.772-.575-.479-.431-.719-1.053-.719-1.966 0-1.007.385-1.727 1.199-2.253.479-.289 1.292-.529 2.346-.672l2.491-.626zm-13.89-16.352v25.993h-4.981V11.798h4.981zm31.707 5.802l1.916-.526 1.293-.095.049 5.084-1.534-.098c-.957 0-1.868.288-2.728.863-.768.527-1.391 1.15-1.725 1.92-.432.717-.623 1.869-.623 3.5v9.543h-4.935v-19.95l4.744.048v2.541c1.005-1.39 2.205-2.301 3.543-2.83zm25.289 1.471l-3.16-3.166 12.022-12.037 3.163 3.167-12.025 12.036zm-9.8-6.169h-4.457V0h4.457v12.902zm12.005 12.532h13.173v4.46h-13.173v-4.46z" fill-rule="evenodd" clip-rule="evenodd" fill="#C00"/></svg>